<svg version="1" xmlns="http://www.w3.org/2000/svg" width="933.333" height="933.333" viewBox="0 0 700.000000 700.000000"><path d="M554 29.2c-12 1.7-21.1 8.2-26.2 18.6l-3.3 6.7-.3 45-.3 45h-38.7c-39.5-.1-44 .3-51.1 3.9-16.5 8.6-19.7 32.7-6.3 46.5 4.1 4.2 9.8 7.5 15.1 8.6 1.9.4 20.7.7 41.9.8 27.1 0 38.5.3 38.8 1.1.2.6.5 18.6.6 40.1l.3 39 2.6 5.5c3.4 7.2 9.7 13.6 16.7 16.8 5 2.4 6.9 2.7 15.7 2.7 9-.1 10.6-.4 15.8-3 7.5-3.7 13.8-10.5 16.7-18.1 2.3-5.8 2.3-6.7 2.4-44.9l.1-39 39.2-.1c21.5-.1 40.8-.5 42.8-.8 9.2-1.8 18-8.6 21.5-16.9 1.9-4.4 2.2-6.4 1.8-14.1-.3-5.1-1.1-10.2-1.9-11.6-3.6-6.4-7.4-10.1-13.7-13.2l-6.7-3.3-40.7-.1c-22.4 0-41.1-.4-41.5-.8-.4-.4-.8-19.9-.9-43.4-.1-45.3-.4-48.3-4.9-55.4-8-12.3-20.4-17.7-35.5-15.6zM243.4 86.6c-9 1.8-16.1 5.9-23.5 13.4-8 8.1-8.2 8.5-29.6 60-9 21.7-16.8 40.4-17.3 41.5-.5 1.1-3.9 9.2-7.5 18-3.7 8.8-7.2 17.3-7.9 19-.7 1.6-2.1 5-3.1 7.5s-2.6 6.3-3.6 8.5c-.9 2.2-5.6 13.4-10.4 25-4.7 11.5-9.2 22.3-10 24-.7 1.6-9 21.7-18.5 44.5s-17.8 42.8-18.5 44.5c-1 2.3-19.9 47.4-27.8 66.5-.5 1.4-1.1 2.9-1.3 3.5-.1.5-1.7 4.4-3.5 8.5-1.7 4.1-4.4 10.4-6 14-1.5 3.6-8.9 21.3-16.4 39.5-7.5 18.1-14.5 34.9-15.6 37.2-1 2.4-1.9 4.5-1.9 4.8 0 .4-.8 2.5-1.9 4.8-1 2.3-5.6 13.2-10.2 24.2l-8.4 20v15c0 14.5.1 15.2 2.8 20.3 7.6 14.5 20.6 21.5 39.6 21.3 15.5-.1 30.6-9 38.6-22.8 1.4-2.3 9.3-20 17.6-39.5 8.2-19.4 15.7-36.9 16.5-38.8.9-1.9 4.3-10 7.8-18l6.2-14.5h246.8l5.8 13.5c3.2 7.4 6.2 14.2 6.5 15 17.6 41.5 33.1 76.7 35.6 80.8 9.2 15.2 24 24 40.2 24 16.2 0 29.3-7.1 39-21.2 5.4-7.9 7.3-15.5 7-27.8-.2-10.9-1-13.7-7.9-30.1-1.9-4.5-12.3-29.3-23.1-55.2-10.8-25.9-21-49.9-22.5-53.5-1.5-3.6-6.3-14.8-10.5-25s-8.4-20.1-9.2-22c-.9-1.9-2.1-4.9-2.8-6.5-.7-1.7-2.4-5.7-3.8-9s-7.8-18.6-14.2-34c-6.4-15.4-12.2-29.4-13-31-.7-1.7-3.2-7.5-5.5-13s-5.1-11.9-6.1-14.2c-1-2.3-1.9-4.5-1.9-4.8 0-.3-1.1-3.1-2.5-6.1-1.4-3-2.5-5.7-2.5-5.9 0-.3-.9-2.4-1.9-4.8-1.1-2.3-6-13.9-11-25.7-4.9-11.8-19.1-45.6-31.5-75.1-12.3-29.5-25.9-61.9-30.1-72-9.3-22.3-12.9-29-19-35.1-5.5-5.4-15.9-11.2-23-12.8-7.4-1.7-18.3-1.8-25.1-.4zM267 283.5c6.2 14.3 14.7 34.1 19 44 4.3 9.9 12.8 29.7 19 44 6.1 14.3 12.5 29.1 14.2 33 1.7 3.8 3.6 8.3 4.4 10 .7 1.6 3.7 8.7 6.7 15.7l5.5 12.8h-82.5c-78.1 0-82.5-.1-82-1.8.2-.9 18.1-43.3 39.7-94.2 21.5-50.9 39.6-93.6 40.2-95 1.2-2.9-.8-6.9 15.8 31.5z"/></svg>