<svg xmlns="http://www.w3.org/2000/svg" xmlns:xlink="http://www.w3.org/1999/xlink" id="Capa_1" x="0" y="0" enable-background="new 0 0 512 512" version="1.1" viewBox="0 0 512 512" xml:space="preserve"><style type="text/css">.st0{fill:#fff}</style><path d="M32,448c0,17.7,14.3,32,32,32h384c17.7,0,32-14.3,32-32V160H32V448z M192,236c0-6.6,5.4-12,12-12h104	c6.6,0,12,5.4,12,12v8c0,6.6-5.4,12-12,12H204c-6.6,0-12-5.4-12-12V236z M480,32H32C14.3,32,0,46.3,0,64v48c0,8.8,7.2,16,16,16h480	c8.8,0,16-7.2,16-16V64C512,46.3,497.7,32,480,32z" class="st0"/></svg>