<svg xmlns="http://www.w3.org/2000/svg" xmlns:xlink="http://www.w3.org/1999/xlink" id="Capa_1" width="512" height="512" x="0" y="0" enable-background="new 0 0 486.619 486.619" version="1.1" viewBox="0 0 486.619 486.619" xml:space="preserve"><g><g><path fill="#444" d="M470.481,211.25H314.28l-27.912,27.896c-1.641,1.646-3.468,3.018-5.311,4.381h173.283v107.525l-16.752-58.983 c-1.971-6.935-8.307-11.726-15.524-11.726H80.694V190.58h92.42l-26.241-26.249c-1.892-1.875-3.529-3.915-5.028-6.028H64.557 c-8.92,0-16.139,7.227-16.139,16.139v105.902H16.141c-5.058,0-9.833,2.372-12.875,6.406c-3.058,4.043-4.034,9.275-2.648,14.145 l46.526,162.178c3.397,11.843,14.228,20.003,26.548,20.003H459c15.253,0,27.619-12.365,27.619-27.619V227.389 C486.619,218.476,479.4,211.25,470.481,211.25z"/></g><path fill="#444" d="M244.556,216.371c2.617,2.618,6.051,3.934,9.473,3.934c3.436,0,6.871-1.315,9.473-3.934l74.955-74.931 c3.846-3.838,4.98-9.606,2.916-14.595c-2.08-5.012-6.982-8.282-12.389-8.282h-32.75v-97.17c0-9.866-7.99-17.85-17.855-17.85 h-48.699c-9.851,0-17.824,7.983-17.824,17.85v97.17h-32.768c-5.406,0-10.275,3.271-12.355,8.282 c-2.08,4.988-0.961,10.757,2.9,14.595L244.556,216.371z"/></g></svg>