<?xml version="1.0" encoding="iso-8859-1"?>
<!-- Generator: Adobe Illustrator 19.1.0, SVG Export Plug-In . SVG Version: 6.00 Build 0)  -->
<svg xmlns="http://www.w3.org/2000/svg" xmlns:xlink="http://www.w3.org/1999/xlink" version="1.1" id="Capa_1" x="0px" y="0px" viewBox="0 0 489 489" style="enable-background:new 0 0 489 489;" xml:space="preserve" width="512px" height="512px">
<g>
	<g>
		<path d="M247.298,336.8c-5.9,5.9-5.9,15.6,0,21.5s15.6,5.9,21.5,0s5.9-15.6,0-21.5C262.898,330.8,253.198,330.8,247.298,336.8z" fill="#444444"/>
		<path d="M171.998,274.9c-5.9-5.9-15.6-5.9-21.5,0s-5.9,15.6,0,21.5s15.6,5.9,21.5,0S177.898,280.9,171.998,274.9z" fill="#444444"/>
		<path d="M414.498,31c-4.7-11.4-19.1-30.6-62.9-31c-0.5,0-0.9,0-1.4,0c-26.9,0-58.9,7.1-90.4,20.1c-5.8,2.4-11.4,4.9-16.8,7.6    l-0.3-0.3c-18-17.5-46.7-17.5-64.7,0l-88.2,85.7c-11.7,11.3-18.3,26.9-18.3,43.2v290.3c0,23.4,19,42.4,42.4,42.4h193    c23.4,0,42.4-19,42.4-42.4V156.3c0-8.3-1.7-16.5-5-23.9c18.7-10.5,35-22.5,47.5-35.1C422.398,66.2,419.198,42.4,414.498,31z     M124.498,285.7c0-20.2,16.5-36.7,36.7-36.7s36.7,16.5,36.7,36.7s-16.5,36.7-36.7,36.7C140.998,322.4,124.598,306,124.498,285.7z     M155.698,381.7c-3.8-3.2-4.3-8.8-1.2-12.6l96.4-116.1c3.2-3.8,8.8-4.3,12.6-1.2c3.8,3.2,4.3,8.8,1.2,12.6l-96.4,116.1    C165.098,384.3,159.498,384.8,155.698,381.7z M258.098,384.3c-20.2,0-36.7-16.5-36.7-36.7s16.5-36.7,36.7-36.7    c20.2,0,36.7,16.5,36.7,36.7C294.798,367.8,278.298,384.3,258.098,384.3z M298.798,114.7c-18.4,7.6-37.3,13-54.5,15.6    c0,0.8,0.1,1.5,0.1,2.3c0,19.4-15.7,35.1-35.1,35.1s-35.1-15.7-35.1-35.1s15.7-35.1,35.1-35.1c11.6,0,21.8,5.6,28.2,14.2    c16.3-2.8,33.9-7.9,51.2-15c6.1-2.5,11.8-5.1,17.2-7.8l-35.4-34.5c1-0.4,2-0.8,3-1.3c26.9-11.1,54.8-17.4,76.8-17.4    c0.3,0,0.7,0,1,0c21.1,0.2,29,5.9,30.2,8.9C385.198,53.8,361.698,88.8,298.798,114.7z" fill="#444444"/>
	</g>
</g>
<g>
</g>
<g>
</g>
<g>
</g>
<g>
</g>
<g>
</g>
<g>
</g>
<g>
</g>
<g>
</g>
<g>
</g>
<g>
</g>
<g>
</g>
<g>
</g>
<g>
</g>
<g>
</g>
<g>
</g>
</svg>
