<?xml version="1.0" encoding="iso-8859-1"?>
<!-- Generator: Adobe Illustrator 19.0.0, SVG Export Plug-In . SVG Version: 6.00 Build 0)  -->
<svg xmlns="http://www.w3.org/2000/svg" xmlns:xlink="http://www.w3.org/1999/xlink" version="1.1" id="Capa_1" x="0px" y="0px" viewBox="0 0 512.001 512.001" style="enable-background:new 0 0 512.001 512.001;" xml:space="preserve" width="512px" height="512px">
<g>
	<g>
		<path d="M507.606,4.394c-5.857-5.858-15.356-5.858-21.214,0l-43.69,43.69c-2.686-1.28-5.52-2.311-8.479-3.05L298.452,11.491    c-15.246-3.811-31.622,0.724-42.735,11.837L13.16,265.486c-17.545,17.546-17.545,46.096,0,63.643l169.713,169.712    c17.546,17.546,46.096,17.547,63.643,0l242.158-242.558c11.113-11.113,15.649-27.489,11.836-42.736l-33.542-135.77    c-0.74-2.958-1.77-5.793-3.05-8.479l43.69-43.69C513.464,19.75,513.464,10.252,507.606,4.394z M471.403,220.825    c1.271,5.082-0.241,10.54-3.945,14.245L225.3,477.627c-5.849,5.849-15.366,5.849-21.215,0L34.373,307.914    c-5.849-5.849-5.849-15.366,0-21.215L276.931,44.542c2.837-2.837,6.703-4.388,10.641-4.388c1.204,0,2.415,0.145,3.604,0.442    l127.53,31.483l-36.125,36.125c-16.725-7.966-37.384-5.044-51.21,8.782c-17.547,17.547-17.547,46.096,0,63.643    c8.772,8.773,20.297,13.16,31.821,13.16c11.523,0,23.048-4.386,31.82-13.16c13.829-13.828,16.75-34.486,8.782-51.211    l36.125-36.125L471.403,220.825z M373.799,159.416c-5.848,5.848-15.365,5.849-21.214,0c-5.848-5.848-5.848-15.366,0-21.214    c2.925-2.925,6.765-4.386,10.607-4.386c3.84,0,7.682,1.462,10.605,4.385l0.001,0.001l0.001,0.001    C379.648,144.051,379.647,153.568,373.799,159.416z" fill="#444444"/>
	</g>
</g>
<g>
	<g>
		<path d="M246.514,180.63c-17.546-17.546-46.096-17.546-63.643,0c-17.545,17.546-17.545,46.096,0,63.643    c17.546,17.546,46.097,17.546,63.643,0C264.061,226.726,264.061,198.177,246.514,180.63z M225.301,223.058    c-5.849,5.849-15.366,5.849-21.214,0c-5.848-5.849-5.85-15.366-0.001-21.214c5.849-5.848,15.365-5.849,21.215,0    C231.149,207.692,231.149,217.209,225.301,223.058z" fill="#444444"/>
	</g>
</g>
<g>
	<g>
		<path d="M267.728,329.128c-17.587-17.587-46.052-17.589-63.642,0c-17.547,17.547-17.547,46.096,0,63.643    c17.588,17.587,46.053,17.59,63.642,0C285.275,375.224,285.275,346.675,267.728,329.128z M246.514,371.557    c-5.861,5.862-15.352,5.863-21.214,0c-5.848-5.848-5.848-15.366,0-21.214c5.862-5.862,15.352-5.863,21.214,0    C252.362,356.191,252.362,365.707,246.514,371.557z" fill="#444444"/>
	</g>
</g>
<g>
	<g>
		<path d="M335.673,274.437c-0.915-8.234-8.333-14.168-16.566-13.253l-190.926,21.214c-8.234,0.915-14.168,8.331-13.253,16.566    c0.853,7.671,7.347,13.346,14.891,13.346c0.553,0,1.113-0.031,1.675-0.093l190.927-21.214    C330.655,290.087,336.589,282.671,335.673,274.437z" fill="#444444"/>
	</g>
</g>
<g>
</g>
<g>
</g>
<g>
</g>
<g>
</g>
<g>
</g>
<g>
</g>
<g>
</g>
<g>
</g>
<g>
</g>
<g>
</g>
<g>
</g>
<g>
</g>
<g>
</g>
<g>
</g>
<g>
</g>
</svg>
