<?xml version="1.0" encoding="utf-8"?>
<!-- Generator: Adobe Illustrator 22.0.1, SVG Export Plug-In . SVG Version: 6.00 Build 0)  -->
<svg version="1.1" id="Capa_1" xmlns="http://www.w3.org/2000/svg" xmlns:xlink="http://www.w3.org/1999/xlink" x="0px" y="0px"
	 viewBox="0 0 570.4 570.4" style="enable-background:new 0 0 570.4 570.4;" xml:space="preserve">
<g>
	<g>
		<path d="M416.6,508c0,11.7-3.8,21.2-11.5,28.7c-7.6,7.4-16.4,11.1-26.3,11.1c-8.1,0-15.4-2.5-21.9-7.4
			c-6.5-4.9-11.6-11.7-15.2-20.2l-35.1-81.6h-201l-35.1,82.3c-3.2,8.5-8,15.2-14.5,19.9c-6.5,4.7-13.6,7.1-21.2,7.1
			c-11.7,0-20.6-3.2-26.6-9.4c-6.1-6.3-9.1-14.8-9.1-25.6c0-4,0.7-8.3,2-12.8L169.1,96.7c3.6-9,9-16,16.2-20.9
			c7.2-4.9,15.3-7,24.3-6.1c8.1,0,15.6,2.4,22.6,7.1c7,4.7,12,11.4,15.2,19.9l165.9,395.2C415.4,497.7,416.6,503.1,416.6,508z
			 M138.8,361h134.9l-68.1-157.8L138.8,361z"/>
	</g>
	<g>
		<path d="M563.9,124.5c4.7,4.6,7.1,10.4,7.1,17.5c0,7.1-2.4,12.9-7.1,17.5c-4.7,4.6-10.6,6.9-17.7,6.9h-61.8v58
			c0,8.3-2.7,15-8.2,20.4c-5.4,5.3-12.3,8-20.5,8c-8.2,0-15.1-2.7-20.5-8c-5.4-5.3-8.2-12.1-8.2-20.4v-58h-60.5
			c-7.1,0-13-2.4-17.7-7.1c-4.7-4.7-7.1-10.6-7.1-17.7c0-7.1,2.4-12.8,7.1-17.3c4.7-4.4,10.6-6.6,17.7-6.6h60.5V51.7
			c0-8.3,2.7-15,8.2-20.4c5.4-5.3,12.4-8,21-8c8.2,0,15,2.7,20.3,8c5.3,5.3,7.9,12.1,7.9,20.4v65.9h61.8
			C553.3,117.7,559.2,119.9,563.9,124.5z"/>
	</g>
</g>
</svg>
