<svg xmlns="http://www.w3.org/2000/svg" viewBox="0 0 534.88 501.45"><title>Recurso 4</title><g id="Capa_2" data-name="Capa 2"><g id="Capa_1-2" data-name="Capa 1"><path d="M408.65,470.43q0,13.5-9.11,22.25a29.61,29.61,0,0,1-21.24,8.77,28.22,28.22,0,0,1-17.19-5.74,40.36,40.36,0,0,1-12.48-15.84l-41.81-99.13H98.45l-41.13,99.8q-3.39,10.13-11.13,15.51A29.41,29.41,0,0,1,29,501.45q-14.16,0-21.58-7.42T0,473.8A81,81,0,0,1,1.35,463l172-416.74Q178,35.49,186.45,29.75a27.14,27.14,0,0,1,19.22-4.39,32.12,32.12,0,0,1,18.21,5.4,29,29,0,0,1,11.46,15.51L406.63,457.62A40.48,40.48,0,0,1,408.65,470.43Zm-284.57-151H281.2L202.3,130.56Z"/><path d="M528.74,88.05a20.35,20.35,0,0,1,6.14,15.22,20.32,20.32,0,0,1-6.14,15.22,21.19,21.19,0,0,1-15.38,6H459.55v50.47q0,10.8-7.12,17.73t-17.87,6.94q-10.77,0-17.87-6.94t-7.11-17.73V124.47H356.91a21.05,21.05,0,0,1-21.52-21.58q0-9.26,6.15-15a21.54,21.54,0,0,1,15.37-5.78h52.67V24.66q0-10.79,7.11-17.72T434.94,0q10.77,0,17.69,6.94t6.92,17.72V82.08h53.81A21.22,21.22,0,0,1,528.74,88.05Z"/></g></g></svg>